<svg width="1024" height="1024" viewBox="0 0 1024 1024" fill="none" xmlns="http://www.w3.org/2000/svg">
<path d="M512.3 361.7L360.5 455.5L512.3 549.4L663.8 455.5L512.3 361.7ZM512 64C264.6 64 64 264.6 64 512C64 759.4 264.6 960 512 960C759.4 960 960 759.4 960 512C960 264.6 759.4 64 512 64ZM663.2 659.5L512.6 750L361.6 659.5V626.4L407 655.8L512.6 568.1L618.2 655.8L663.3 626.4V659.5H663.2ZM617.6 637.1L512.3 549.4L407 637.1L256 537.9L360.5 455.5L256 371.2L407 274L512.3 361.7L617.6 274L768 372.1L663.8 455.6L768 539L617.6 637.1Z" fill="black"/>
</svg>
