<svg width="14" height="14" viewBox="0 0 14 14" fill="none" xmlns="http://www.w3.org/2000/svg">
<g clip-path="url(#clip0_2317_473)">
<path d="M8.35099 5.30694C8.27068 5.07937 8.12175 4.88233 7.92473 4.74298C7.72771 4.60363 7.49231 4.52885 7.25099 4.52894H6.34799C6.09037 4.52759 5.8414 4.62181 5.64923 4.79339C5.45705 4.96497 5.33533 5.20171 5.30759 5.45783C5.27985 5.71396 5.34807 5.97127 5.49905 6.18001C5.65003 6.38876 5.87305 6.5341 6.12499 6.58794L7.49999 6.88794C7.78114 6.94949 8.02963 7.11277 8.19771 7.3464C8.3658 7.58003 8.44162 7.86753 8.41062 8.15367C8.37961 8.4398 8.24396 8.70439 8.02973 8.89659C7.8155 9.08879 7.5378 9.19504 7.24999 9.19494H6.47299C5.96499 9.19494 5.53299 8.87094 5.37299 8.41794M6.86199 4.52894V3.36194M6.86199 10.3619V9.19594M1.99799 13.4979V10.9979H4.49799" stroke="black" stroke-linecap="round" stroke-linejoin="round"/>
<path d="M13.388 5.80398C13.6535 7.21919 13.4415 8.68249 12.7854 9.96422C12.1293 11.2459 11.0662 12.2735 9.76287 12.8857C8.45958 13.4979 6.98992 13.66 5.58455 13.3465C4.17918 13.0331 2.91766 12.2619 1.99799 11.154M0.611989 8.19598C0.346514 6.78076 0.558465 5.31746 1.21458 4.03573C1.87069 2.75401 2.93382 1.72642 4.23711 1.11425C5.54039 0.502087 7.01006 0.339996 8.41543 0.653422C9.8208 0.966847 11.0823 1.73805 12.002 2.84598" stroke="black" stroke-linecap="round" stroke-linejoin="round"/>
<path d="M12.002 0.501953V3.00195H9.50198" stroke="black" stroke-linecap="round" stroke-linejoin="round"/>
</g>
<defs>
<clipPath id="clip0_2317_473">
<rect width="14" height="14" fill="white"/>
</clipPath>
</defs>
</svg>
