<svg width="143" height="65" viewBox="0 0 143 65" fill="none" xmlns="http://www.w3.org/2000/svg">
<g clip-path="url(#clip0_1705_346)">
<path d="M141.679 11.2811C140.393 9.66737 136.082 9.07244 131.397 9.12132C132.903 5.59902 133.842 2.87938 133.932 1.85257C133.938 1.79758 133.941 1.74644 133.941 1.70046C133.941 1.47824 133.901 1.2377 133.79 1.04475C133.23 0.066815 130.047 -0.345135 129.119 0.336944C126.759 2.07317 124.731 5.60866 123.133 9.82302C121.162 10.1465 119.459 10.5627 118.305 11.0328C116.845 11.5647 113.323 13.1398 113.747 14.2998C114.034 15.0828 116.473 14.7275 121.339 14.5271C120.684 16.1216 120.151 17.4185 120.054 17.6475C115.408 28.6582 111.334 35.123 109.691 35.123C107.518 35.123 105.621 27.613 114.863 9.67091C114.961 9.48343 115.019 9.27697 114.913 9.09367C114.577 8.50645 113.307 8.25498 112.156 8.23697C109.557 8.23697 105.424 10.5279 103.195 10.5279C100.244 10.5279 105.424 4.63362 100.019 4.63362C96.174 4.63362 94.1679 6.96929 94.1679 9.02645C94.1679 12.1403 95.1859 13.1459 95.5778 14.0936C93.7844 22.86 88.9062 31.9123 86.4247 31.9123C84.2516 31.9123 82.9239 25.7639 92.1666 7.8218C92.2639 7.63432 92.3219 7.42786 92.2165 7.24456C91.6838 6.31583 88.8182 6.22707 87.7802 6.57245C86.6757 6.9397 85.5481 8.2434 84.4827 10.0816C84.2584 7.34457 82.9522 6.302 80.6951 6.302C74.6241 6.302 68.2213 13.0424 66.5986 22.7362L66.598 22.7346C65.5893 28.0964 64.1159 29.8541 62.9164 29.8541C59.9418 29.8541 64.1217 18.9145 64.1217 12.6893C64.1217 10.4887 63.492 8.38039 61.5326 8.38039C58.2412 8.38039 55.2741 12.5272 52.8745 16.9966C52.9296 16.3174 52.9615 15.7209 52.9615 15.2443C52.9615 10.9672 51.9773 9.78636 49.9882 9.78636C45.9099 9.78636 42.5415 15.5134 40.031 20.6478C40.7023 13.8473 40.5957 7.90348 38.0639 7.90348C34.4606 7.90348 32.7055 10.9196 32.7055 12.4275C32.7055 13.864 35.1068 12.2394 34.8016 16.5846C34.5531 20.1188 31.644 40.823 32.2482 41.6077C33.3301 43.0121 36.8164 41.7354 37.2002 39.3097C38.371 32.5201 43.7894 18.4038 45.7085 18.4038C48.5232 18.4038 44.6849 38.0156 45.0488 38.4877C46.1306 39.892 49.617 38.6154 50.0008 36.1897C51.1713 29.3997 54.9496 16.9979 56.8687 16.9979C59.414 16.9979 56.4839 25.3774 56.4839 31.0971C56.4839 34.6657 57.773 36.8679 59.7498 36.8679C62.1565 36.8679 64.8039 34.6943 66.7688 31.1707C67.6041 33.7379 69.2954 35.5137 71.3209 35.5137C75.3096 35.5137 78.3435 32.8111 80.5481 29.0772C80.6496 33.1343 82.0421 35.988 86.1462 35.988C94.3458 35.988 100.131 16.4779 100.131 16.4779C101.691 17.3117 104.369 17.1911 106 16.521C103.882 26.1408 101.213 39.2704 109.413 39.2704C113.041 39.2704 115.846 35.3899 119.201 30.9681C119.453 39.3727 124.243 44.9789 128.863 44.9789C130.395 44.9789 131.844 43.9501 131.844 43.1439C131.844 41.6981 124.254 44.0398 124.254 31.7122C124.254 29.0923 127.173 20.6424 129.387 14.4689C132.937 14.5686 137.123 14.8523 141.982 15.4819C142.177 15.507 142.375 15.4916 142.501 15.342C143.141 14.5853 142.309 12.0719 141.679 11.2811ZM74.8633 30.306C73.3273 30.306 71.7779 29.1122 71.7779 25.6652C71.7779 20.1835 75.5342 12.7079 79.4923 12.7079C81.4356 12.7079 82.1926 14.7497 82.1926 17.6697C82.1926 22.7449 78.221 30.306 74.8633 30.306ZM31.1403 32.0882C30.2247 39.418 21.7413 44.9789 12.8125 44.9789C3.88364 44.9789 0.449852 40.8716 0.81015 36.8274C1.41795 30.0027 8.55397 28.2334 9.84628 28.2334C11.1386 28.2334 11.6497 28.9286 11.6049 29.3708C11.4899 30.5082 7.03157 30.6346 6.69222 34.1733C6.3532 37.712 10.34 39.9869 15.8827 39.9869C21.4254 39.9869 23.9095 37.2695 24.205 34.7419C25.2173 26.0849 5.81984 22.2304 6.94778 10.161C7.58588 3.33636 16.1125 -7.45787e-05 20.8547 -7.45787e-05C28.2015 -7.45787e-05 31.4248 5.35847 31.1106 7.94947C30.7961 10.5401 28.4087 12.3095 26.6311 12.3095C22.7464 12.3095 25.7274 3.52609 19.7406 3.52609C17.3461 3.52609 14.2208 5.48485 13.9581 8.07585C13.1057 16.4801 32.5686 20.6507 31.1403 32.0882Z" fill="#E6322A"/>
<path d="M121.484 51.5525C115.355 54.358 108.986 56.6303 102.467 58.3524C95.9484 60.0742 89.2861 61.2496 82.5732 61.8796C75.8861 62.507 69.1478 62.5755 62.4478 62.1076C55.7787 61.6416 49.1355 60.6469 42.6424 59.0914C39.3791 58.3093 36.1483 57.3922 32.962 56.3396C29.6981 55.2614 26.9404 54.2165 23.7844 52.8578C23.0068 52.5231 22.2333 52.1793 21.4631 51.8281C21.0899 51.6577 20.0071 51.3663 20.3442 52.1616C20.679 52.9508 21.6968 53.6023 22.4402 53.9413C28.6981 56.795 35.2054 59.1155 41.8589 60.863C48.4887 62.6041 55.2657 63.8013 62.0917 64.4323C68.9248 65.0639 75.8039 65.1211 82.6483 64.6378C89.4311 64.1589 96.1749 63.1257 102.786 61.5371C109.394 59.9484 115.87 57.8041 122.109 55.1083C122.886 54.7722 123.659 54.4275 124.429 54.075C125.083 53.7756 124.026 52.8106 123.766 52.5935C123.374 52.2661 122.941 51.9555 122.468 51.7571C122.209 51.6487 121.763 51.4249 121.484 51.5525Z" fill="#FDC300"/>
<path d="M44.5869 46.3555H42.9668V51.7893H41.6436V46.3555H40.0332V45.0927H44.5869V46.3555Z" fill="#505456"/>
<path d="M45.5901 48.4401C45.5901 46.4791 47.1334 44.958 49.0703 44.958C51.0068 44.958 52.5598 46.4791 52.5598 48.4401C52.5598 50.3918 51.0068 51.9222 49.0703 51.9222C47.1334 51.9222 45.5901 50.3918 45.5901 48.4401ZM51.2369 48.4401C51.2369 47.1486 50.2875 46.2398 49.0703 46.2398C47.8527 46.2398 46.9033 47.1486 46.9033 48.4401C46.9033 49.7223 47.8527 50.6311 49.0703 50.6311C50.2875 50.6311 51.2369 49.7223 51.2369 48.4401Z" fill="#505456"/>
<path d="M60.5392 48.4398C60.5392 50.3246 59.1589 51.7881 57.3085 51.7881H54.4515V45.0918H57.3085C59.1589 45.0918 60.5392 46.5553 60.5392 48.4398ZM59.2737 48.4398C59.2737 47.2059 58.4686 46.3543 57.3085 46.3543H55.7745V50.5253H57.3085C58.4686 50.5253 59.2737 49.674 59.2737 48.4398Z" fill="#505456"/>
<path d="M65.917 50.583H63.3476L62.9641 51.7883H61.5358L63.8174 45.0919H65.4568L67.7385 51.7883H66.3002L65.917 50.583ZM65.5239 49.349L64.6321 46.5554L63.7407 49.349H65.5239Z" fill="#505456"/>
<path d="M77.5792 45.0927V51.789H76.2563V48.9767H74.032V51.789H72.7091V45.0927H74.032V47.7139H76.2563V45.0927H77.5792Z" fill="#505456"/>
<path d="M79.4767 48.4401C79.4767 46.4791 81.02 44.958 82.9569 44.958C84.8934 44.958 86.4464 46.4791 86.4464 48.4401C86.4464 50.3918 84.8934 51.9222 82.9569 51.9222C81.02 51.9222 79.4767 50.3918 79.4767 48.4401ZM85.1235 48.4401C85.1235 47.1486 84.1741 46.2398 82.9569 46.2398C81.7393 46.2398 80.7899 47.1486 80.7899 48.4401C80.7899 49.7223 81.7393 50.6311 82.9569 50.6311C84.1741 50.6311 85.1235 49.7223 85.1235 48.4401Z" fill="#505456"/>
<path d="M90.4741 49.4635H89.6591V51.7882H88.3362V45.0916H90.8766C92.1135 45.0916 93.1103 46.0865 93.1103 47.3111C93.1103 48.1434 92.5927 48.8895 91.8544 49.2435L93.9253 51.7882H92.3723L90.4741 49.4635ZM89.6591 48.3058H90.8766C91.3755 48.3058 91.7874 47.8659 91.7874 47.3111C91.7874 46.7561 91.3755 46.3255 90.8766 46.3255H89.6591V48.3058Z" fill="#505456"/>
<path d="M99.1149 50.583H96.5454L96.1619 51.7883H94.7336L97.0153 45.0919H98.6547L100.936 51.7883H99.4981L99.1149 50.583ZM98.7217 49.349L97.83 46.5554L96.9386 49.349H98.7217Z" fill="#505456"/>
</g>
<defs>
<clipPath id="clip0_1705_346">
<rect width="142" height="65" fill="white" transform="translate(0.77832)"/>
</clipPath>
</defs>
</svg>
