<svg width="24" height="24" viewBox="0 0 24 24" fill="none" xmlns="http://www.w3.org/2000/svg">
<path d="M15 3H4.99999C3.88999 3 2.99999 3.89 2.99999 5V10.82C3.5782 10.2587 4.25661 9.811 4.99999 9.5V5H12V10.82C12.03 10.85 12.07 10.87 12.1 10.9C12.44 11.24 12.73 11.61 12.97 12H19V19H12.97C12.73 19.39 12.44 19.76 12.1 20.1C11.74 20.45 11.35 20.74 10.94 21H19C20.11 21 21 20.11 21 19V9L15 3ZM14 10V4.5L19.5 10H14ZM7.49999 11C4.99999 11 2.99999 13 2.99999 15.5C2.99999 16.38 3.24999 17.21 3.68999 17.9L0.609985 21L1.99999 22.39L5.11999 19.32C5.80999 19.75 6.62999 20 7.49999 20C9.99999 20 12 18 12 15.5C12 13 9.99999 11 7.49999 11ZM7.49999 18C6.83694 18 6.20106 17.7366 5.73222 17.2678C5.26338 16.7989 4.99999 16.163 4.99999 15.5C4.99999 14.837 5.26338 14.2011 5.73222 13.7322C6.20106 13.2634 6.83694 13 7.49999 13C8.16303 13 8.79891 13.2634 9.26775 13.7322C9.73659 14.2011 9.99999 14.837 9.99999 15.5C9.99999 16.163 9.73659 16.7989 9.26775 17.2678C8.79891 17.7366 8.16303 18 7.49999 18Z" fill="black"/>
</svg>
