<svg width="24" height="24" viewBox="0 0 24 24" fill="none" xmlns="http://www.w3.org/2000/svg">
<path d="M15.45 16.52L12.44 13.51C12.33 13.4 12.2 13.38 12.13 13.38C12.06 13.38 11.93 13.4 11.82 13.51L8.80003 16.53C8.46003 16.87 7.93003 17.42 6.16003 17.42L9.87003 21.12C10.4325 21.6818 11.195 21.9974 11.99 21.9974C12.785 21.9974 13.5475 21.6818 14.11 21.12L17.83 17.41C16.92 17.41 16.16 17.23 15.45 16.52ZM8.80003 7.47005L11.82 10.49C11.9 10.57 12.02 10.62 12.13 10.62C12.24 10.62 12.36 10.57 12.44 10.49L15.43 7.50005C16.14 6.76005 16.95 6.59005 17.86 6.59005L14.14 2.88005C13.5775 2.31824 12.815 2.00269 12.02 2.00269C11.225 2.00269 10.4625 2.31824 9.90003 2.88005L6.19003 6.58005C7.95003 6.58005 8.49003 7.16005 8.80003 7.47005Z" fill="black"/>
<path d="M21.11 9.84995L18.86 7.58995H17.6C17.06 7.58995 16.52 7.80995 16.15 8.19995L13.15 11.1999C12.87 11.4799 12.5 11.6199 12.13 11.6199C11.749 11.6146 11.3844 11.4644 11.11 11.1999L8.09005 8.16995C7.71005 7.78995 7.19005 7.56995 6.64005 7.56995H5.17005L2.88005 9.86995C2.31824 10.4324 2.00269 11.1949 2.00269 11.9899C2.00269 12.7849 2.31824 13.5474 2.88005 14.1099L5.17005 16.4099H6.65005C7.19005 16.4099 7.71005 16.1899 8.10005 15.8099L11.12 12.7899C11.4 12.5099 11.77 12.3699 12.14 12.3699C12.51 12.3699 12.88 12.5099 13.16 12.7899L16.17 15.7999C16.55 16.1799 17.07 16.3999 17.62 16.3999H18.88L21.13 14.1399C21.6942 13.5673 22.0088 12.7947 22.005 11.9908C22.0013 11.187 21.6795 10.4173 21.11 9.84995Z" fill="black"/>
</svg>
