<svg width="24" height="24" viewBox="0 0 24 24" fill="none" xmlns="http://www.w3.org/2000/svg">
<g clip-path="url(#clip0_2368_475)">
<path d="M1.09091 24H16.3636C16.9651 24 17.4545 23.4953 17.4545 22.875V17.25C17.4545 17.2425 17.4509 17.2365 17.4502 17.229C17.4902 17.2028 17.5316 17.178 17.5709 17.1503L23.3789 23.1398C23.4124 23.1756 23.4525 23.2042 23.4968 23.224C23.5412 23.2437 23.5889 23.2541 23.6371 23.2546C23.6854 23.2551 23.7333 23.2457 23.778 23.2269C23.8227 23.2081 23.8634 23.1803 23.8976 23.1451C23.9318 23.11 23.9588 23.0682 23.9772 23.0221C23.9955 22.976 24.0048 22.9267 24.0044 22.8769C24.0041 22.8271 23.9941 22.7779 23.9751 22.7321C23.9561 22.6863 23.9285 22.6449 23.8938 22.6102L18.1389 16.6755C18.6111 16.2211 18.9877 15.6715 19.2454 15.0607C19.503 14.4499 19.636 13.791 19.6364 13.125C19.6357 12.3066 19.435 11.5016 19.0529 10.7843C18.6708 10.067 18.1196 9.46057 17.4502 9.021C17.4509 9.0135 17.4545 9.0075 17.4545 9V7.125C17.4545 7.11225 17.4487 7.10175 17.448 7.08975C17.4465 7.0725 17.4422 7.0575 17.4385 7.041C17.4271 6.9889 17.4048 6.94 17.3731 6.89775C17.368 6.891 17.3687 6.88275 17.3636 6.876L11.5455 0.126C11.5433 0.12375 11.5404 0.12375 11.5382 0.1215C11.4939 0.0735415 11.4379 0.0388175 11.376 0.021C11.3622 0.0165 11.3498 0.015 11.3353 0.01275C11.3142 0.009 11.2945 0 11.2727 0H1.09091C0.489455 0 0 0.50475 0 1.125V22.875C0 23.4953 0.489455 24 1.09091 24ZM18.9091 13.125C18.9091 15.3997 17.1142 17.25 14.9091 17.25C12.704 17.25 10.9091 15.3997 10.9091 13.125C10.9091 10.8503 12.704 9 14.9091 9C17.1142 9 18.9091 10.8503 18.9091 13.125ZM11.6364 1.36125L16.2815 6.75H12C11.84 6.75 11.6364 6.435 11.6364 6.1875V1.36125ZM0.727273 1.125C0.727273 1.02554 0.765584 0.930161 0.833779 0.859835C0.901974 0.789509 0.994467 0.75 1.09091 0.75H10.9091V6.1875C10.9091 6.79425 11.3855 7.5 12 7.5H16.7273V8.62575C15.8488 8.24681 14.8796 8.15139 13.9475 8.3521C13.0154 8.55281 12.1642 9.04021 11.5062 9.75H4C3.90356 9.75 3.81107 9.78951 3.74287 9.85983C3.67468 9.93016 3.63636 10.0255 3.63636 10.125C3.63636 10.2245 3.67468 10.3198 3.74287 10.3902C3.81107 10.4605 3.90356 10.5 4 10.5H10.9324C10.5109 11.1756 10.2594 11.9489 10.2007 12.75H4C3.90356 12.75 3.81107 12.7895 3.74287 12.8598C3.67468 12.9302 3.63636 13.0255 3.63636 13.125C3.63636 13.2245 3.67468 13.3198 3.74287 13.3902C3.81107 13.4605 3.90356 13.5 4 13.5H10.2C10.2591 14.301 10.5105 15.0742 10.9316 15.75H4C3.90356 15.75 3.81107 15.7895 3.74287 15.8598C3.67468 15.9302 3.63636 16.0255 3.63636 16.125C3.63636 16.2245 3.67468 16.3198 3.74287 16.3902C3.81107 16.4605 3.90356 16.5 4 16.5H11.4545C11.4698 16.5 11.4829 16.4933 11.4982 16.491C12.156 17.2038 13.0082 17.6937 13.9419 17.8959C14.8757 18.0982 15.847 18.0032 16.7273 17.6235V22.875C16.7273 22.9745 16.689 23.0698 16.6208 23.1402C16.5526 23.2105 16.4601 23.25 16.3636 23.25H1.09091C0.887273 23.25 0.727273 23.085 0.727273 22.875V1.125Z" fill="black"/>
<path d="M3.99999 7.5H8.36363C8.46007 7.5 8.55256 7.46049 8.62076 7.39017C8.68895 7.31984 8.72726 7.22446 8.72726 7.125C8.72726 7.02554 8.68895 6.93016 8.62076 6.85983C8.55256 6.78951 8.46007 6.75 8.36363 6.75H3.99999C3.90355 6.75 3.81105 6.78951 3.74286 6.85983C3.67466 6.93016 3.63635 7.02554 3.63635 7.125C3.63635 7.22446 3.67466 7.31984 3.74286 7.39017C3.81105 7.46049 3.90355 7.5 3.99999 7.5ZM3.99999 19.5H13.4545C13.551 19.5 13.6435 19.4605 13.7117 19.3902C13.7799 19.3198 13.8182 19.2245 13.8182 19.125C13.8182 19.0255 13.7799 18.9302 13.7117 18.8598C13.6435 18.7895 13.551 18.75 13.4545 18.75H3.99999C3.90355 18.75 3.81105 18.7895 3.74286 18.8598C3.67466 18.9302 3.63635 19.0255 3.63635 19.125C3.63635 19.2245 3.67466 19.3198 3.74286 19.3902C3.81105 19.4605 3.90355 19.5 3.99999 19.5Z" fill="black"/>
</g>
<defs>
<clipPath id="clip0_2368_475">
<rect width="24" height="24" fill="white"/>
</clipPath>
</defs>
</svg>
